HIERARCHY
ROOT pelvis
{
  OFFSET 0 100 0
  CHANNELS 6 Xposition Yposition Zposition Zrotation Xrotation Yrotation
  JOINT pelvis_right_femur
  {
    OFFSET -10.78128 -3.44521 -0.5502486
    CHANNELS 3 Zrotation Xrotation Yrotation
    JOINT right_femur_tibia
    {
      OFFSET -0.8047443 -44.0398 -0.1307829
      CHANNELS 3 Zrotation Xrotation Yrotation
      JOINT right_tibia_foot
      {
        OFFSET 3.006224 -47.83518 -5
        CHANNELS 3 Zrotation Xrotation Yrotation
        End Site
        {
          OFFSET 0 -5 15
        }
      }
    }
  }
  JOINT pelvis_left_femur
  {
    OFFSET 10.78128 -3.44521 -0.5502486
    CHANNELS 3 Zrotation Xrotation Yrotation
    JOINT left_femur_tibia
    {
      OFFSET 0.8047443 -44.0398 -0.1307829
      CHANNELS 3 Zrotation Xrotation Yrotation
      JOINT left_tibia_foot
      {
        OFFSET -4.370144 -48.10324 -4.275266
        CHANNELS 3 Zrotation Xrotation Yrotation
        End Site
        {
          OFFSET 0 -5 15
        }
      }
    }
  }
  JOINT pelvis_spine1
  {
    OFFSET 0 6.468898 -3.129235
    CHANNELS 3 Zrotation Xrotation Yrotation
    JOINT spine1
    {
      OFFSET 0 23.15396 4.99043
      CHANNELS 3 Zrotation Xrotation Yrotation
      JOINT spine2
      {
        OFFSET 0 20.79997 -5.064912
        CHANNELS 3 Zrotation Xrotation Yrotation
        JOINT neck
        {
          OFFSET 0 14.38658 9.616178
          CHANNELS 3 Zrotation Xrotation Yrotation
          End Site
          {
            OFFSET 0 20 0
          }
        }
      }
      JOINT right_manubrium
      {
        OFFSET -5.722621 16.35077 3.967754
        CHANNELS 3 Zrotation Xrotation Yrotation
        JOINT right_clavicle
        {
          OFFSET -13.16364 1.694482 -4.693211
          CHANNELS 3 Zrotation Xrotation Yrotation
          JOINT right_humerus
          {
            OFFSET -28.5034 -0.3100689 -2.792744
            CHANNELS 3 Zrotation Xrotation Yrotation
            JOINT right_radius
            {
              OFFSET -25.15693 0.02248979 -1.271978
              CHANNELS 3 Zrotation Xrotation Yrotation
              End Site
              {
                OFFSET -15 0 0
              }
            }
          }
        }
      }
      JOINT left_manubrium
      {
        OFFSET 5.722621 16.35077 3.967754
        CHANNELS 3 Zrotation Xrotation Yrotation
        JOINT left_clavicle
        {
          OFFSET 13.16364 1.694482 -4.693211
          CHANNELS 3 Zrotation Xrotation Yrotation
          JOINT left_humerus
          {
            OFFSET 29.39168 -1.063119 -2.237045
            CHANNELS 3 Zrotation Xrotation Yrotation
            JOINT left_radius
            {
              OFFSET 24.59957 -0.9528479 0.9047498
              CHANNELS 3 Zrotation Xrotation Yrotation
              End Site
              {
                OFFSET 15 -0 -0
              }
            }
          }
        }
      }
    }
  }
}
MOTION
Frames: 21
Frame Time: 0.0416666666667
-1006.656 101.8057 2710.833 -7.969791 -7.498836 -50.54403 0.4362736 12.85113 -2.605034 -0 41.99223 -0 -12.61285 5.434403 2.212873 -3.979134 -8.648883 -12.59357 -0 16.45455 -0 -2.664627 -8.808387 21.59948 -1.1984 0.8356657 2.987335 -2.03741 9.612968 -1.067058 2.734708 26.32837 5.657178 3.947666 -17.59685 7.452407 -0.9214987 -19.22551 9.917224 87.01447 21.12353 -5.163416 -0 0 14.42381 -23.67116 4.962519 14.43832 5.023937 -15.98583 -4.763138 -94.13923 19.48683 22.02243 -0 0 1.939109 8.927704 16.99425 1.539029
-1010.554 102.6297 2715.123 -8.130626 -7.87645 -50.18963 -0.0681904 9.205109 -2.742409 -0 46.18683 -0 -13.12024 8.223196 2.322717 -4.555988 -5.25724 -13.04337 -0 16.1145 -0 -1.596759 -9.417605 21.36288 -1.307001 0.8412062 2.467562 -2.036854 10.19636 -1.397849 2.543116 26.34554 6.040054 4.136611 -17.7443 7.570891 -0.5474819 -18.89315 10.26139 87.90055 21.22716 -6.59761 -0 0 13.08802 -23.95008 5.237661 14.23565 5.068215 -16.74019 -5.439696 -93.18549 18.81525 20.80482 -0 0 0.5322784 10.28254 16.91105 0.1477997
-1014.217 103.5412 2719.198 -7.881643 -7.952518 -49.61432 -0.5651552 4.661728 -2.543329 -0 49.61216 -0 -13.00651 10.15149 2.058311 -5.101463 -1.7642 -13.28054 -0 15.1069 -0 -0.1260319 -10.20593 20.98439 -1.539406 0.7060996 2.075903 -1.82283 10.84874 -2.085507 2.221726 26.06532 6.496182 4.229245 -18.09912 7.699561 0.09808835 -18.62453 10.69381 88.50242 21.89925 -8.471471 -0 0 11.86836 -24.13682 6.012611 14.0344 5.092439 -17.72514 -5.987244 -91.91775 18.22201 19.39353 0 0 -1.979964 11.37649 16.41929 -0.7832996
-1017.587 104.426 2723.009 -7.139282 -7.604312 -48.84011 -0.9596205 -0.8568047 -1.898933 -0 51.72696 -0 -12.15036 10.67954 1.293139 -5.617152 1.833523 -13.43527 -0 13.26667 -0 1.784942 -11.23067 20.56001 -1.902497 0.3621951 1.874977 -1.329535 11.5164 -3.187348 1.780254 25.43562 6.996199 4.198062 -18.72092 7.856222 1.059992 -18.47221 11.19345 88.78493 23.2957 -10.86334 -0 0 10.9047 -24.01951 7.334028 13.73614 5.110775 -18.9238 -6.320175 -90.43044 17.79377 17.93306 0 0 -5.621193 12.10349 15.59227 -1.134479
-1020.581 105.1423 2726.477 -5.829314 -6.65408 -47.94624 -1.032317 -7.252413 -0.6329369 -0 51.68546 -0 -10.52795 9.032097 0.005560129 -6.075915 5.40145 -13.77366 -0 10.57805 -0 4.053912 -12.58811 20.31354 -2.377914 -0.248904 1.952213 -0.4951249 12.04188 -4.698149 1.277403 24.44721 7.462769 4.020097 -19.70693 8.070685 2.34163 -18.49529 11.69798 88.71536 25.55714 -13.74485 -0 0 10.44957 -23.15323 9.079094 13.11211 5.160168 -20.20841 -6.275689 -88.99926 17.8276 16.72498 0 0 -10.17474 12.27384 14.63975 -0.7133357
-1023.101 105.5467 2729.482 -3.979704 -4.935774 -47.10236 -0.3806175 -13.96944 1.468365 -0 48.50667 -0 -8.447955 4.512644 -1.539712 -6.391747 8.554115 -14.74696 -0 7.495868 -0 6.316212 -14.37456 20.62715 -2.873558 -1.112885 2.387152 0.6650858 12.12197 -6.418078 0.8666929 23.2176 7.740144 3.708385 -21.17656 8.38266 3.809877 -18.73939 12.06847 88.27736 28.60062 -16.78398 -0 0 10.87114 -20.79393 10.72487 11.75684 5.309159 -21.24089 -5.614103 -88.25253 18.89826 16.34132 0 0 -14.78187 11.63781 14.0158 0.667594
-1025.086 105.5771 2731.918 -1.853283 -2.479201 -46.532 1.432885 -19.9125 4.416812 -0 41.88389 -0 -6.648101 -2.439644 -2.768131 -6.434713 10.67266 -16.73053 -0 5.252031 -0 7.826104 -16.5943 21.77497 -3.188815 -2.025109 3.147239 1.953319 11.43454 -7.859249 0.7815539 22.02851 7.644685 3.367778 -23.17023 8.813408 5.118152 -19.16228 12.10989 87.4557 31.81418 -19.18981 -0 0 12.43426 -16.34103 11.27732 9.356075 5.628793 -21.52696 -4.168837 -89.14271 21.48762 17.51807 0 0 -17.78064 10.0823 14.28054 2.934114
-1026.656 105.3293 2733.862 0.0707681 0.3074416 -46.3191 4.250779 -24.31375 7.475337 -0 33.30769 -0 -5.805666 -9.0517 -3.228492 -6.173171 11.38423 -19.14846 -0 5.230689 -0 7.808419 -19.06406 23.12588 -3.129357 -2.564915 3.956019 3.02872 10.08423 -8.561478 1.113157 21.09679 7.215256 3.200729 -25.42065 9.302957 5.88511 -19.51121 11.75777 86.34586 34.18701 -20.209 -0 0 14.68954 -10.75313 10.20467 6.507509 6.119203 -20.96383 -2.207323 -91.939 24.8305 20.23708 0 0 -17.99216 8.087669 15.35851 5.364538
-1028.228 104.9462 2735.729 1.406801 2.740808 -46.23896 6.875812 -27.9395 9.117983 -0 25.43984 -0 -5.823988 -11.48694 -2.997146 -5.749914 11.31379 -20.10933 -0 7.2183 -0 6.196903 -21.38251 22.88411 -2.760714 -2.416672 4.368981 3.670782 8.847583 -8.716233 1.526991 20.28655 6.924564 3.348634 -27.24681 9.679819 6.086257 -19.36484 11.28716 85.5371 35.21556 -20.33953 -0 0 16.08073 -7.049243 8.950759 4.731798 6.723248 -20.43729 -0.5669638 -94.45614 26.77451 22.31202 0 0 -17.03117 6.848525 16.03194 6.69368
-1030.35 104.4059 2738.082 2.036297 4.180256 -45.95108 7.965743 -31.7002 8.243705 -0 19.40868 -0 -6.099468 -8.634289 -2.453552 -5.333104 11.7621 -18.30317 -0 9.608732 -0 3.676906 -23.03869 19.99661 -2.352014 -1.764478 4.153796 3.898854 8.426308 -8.898439 1.562054 19.49154 7.194499 3.701809 -28.00293 9.750706 5.88869 -18.53741 11.05813 85.86578 35.05095 -21.01457 -0 0 15.03822 -7.449142 9.412138 4.846459 7.373043 -20.99048 -0.02742373 -93.79623 26.18744 21.06581 0 0 -18.08893 7.094389 15.30341 6.28085
-1033.415 103.5849 2741.281 1.909832 4.22962 -45.31623 7.198749 -34.44624 5.042896 -0 14.36284 -0 -6.339506 -2.798682 -1.951999 -5.103925 13.41587 -14.47688 -0 11.99664 -0 1.068677 -23.60022 15.67114 -2.011214 -1.15951 3.478985 3.828204 8.797296 -9.23842 1.180965 19.03832 7.801145 3.966698 -27.57465 9.426262 5.143649 -17.33273 11.1166 87.58824 33.46388 -22.79083 -0 0 11.44754 -11.2075 11.16295 6.43226 7.897197 -22.58792 -0.7131702 -90.33614 23.66619 16.85214 0 0 -22.02062 8.320825 13.6824 4.625436
-1037.527 102.497 2745.381 0.9438549 2.77175 -44.49152 5.556689 -34.00481 0.9411248 -0 9.787293 -0 -6.533466 2.926753 -1.767148 -5.175904 15.90645 -10.30627 -0 15.62216 -0 -0.8213255 -22.65535 12.1801 -1.596847 -1.145625 2.720336 3.529621 9.637098 -9.490822 0.6661702 19.34633 8.170797 3.861307 -26.19718 8.765005 3.530427 -16.33784 11.3034 90.2868 29.86778 -25.03354 -0 0 6.584184 -16.05243 12.53792 8.417104 8.049577 -24.4669 -2.318418 -86.47297 20.31835 12.03313 0 0 -27.13144 9.809682 12.3915 2.366679
-1042.435 101.4418 2750.115 -0.8200384 0.2504558 -43.8763 4.75378 -29.51472 -1.813867 -0 6.799876 -0 -6.781266 5.978975 -2.083323 -5.279851 17.71397 -7.423374 -0 22.06434 -0 -1.430294 -19.89535 11.24442 -0.8855284 -1.873544 2.325648 3.037007 10.67794 -9.416087 0.3782775 20.41981 7.882122 3.33436 -24.31583 8.000774 1.169585 -16.14058 11.45496 93.01008 24.64873 -26.492 -0 0 2.822013 -19.62673 12.56188 9.50679 7.696881 -25.78049 -4.263161 -84.25213 17.44114 9.061582 0 0 -30.46229 11.21669 12.30953 -0.05170581
-1047.565 100.8678 2754.976 -2.757984 -2.037338 -43.79205 5.188674 -22.93306 -2.051791 -0 6.67142 -0 -7.440508 5.235202 -2.684674 -4.856707 16.49813 -6.722074 -0 31.16072 -0 -1.374256 -15.91995 12.3408 -0.04955902 -2.548066 2.590062 2.4882 11.5394 -8.950639 0.5135742 21.52865 7.102484 2.847785 -22.73027 7.415336 -0.7337156 -16.69559 11.50621 94.46828 20.60456 -26.21035 -0 0 2.291469 -20.49289 11.59174 9.17017 7.049474 -25.95526 -5.588571 -84.40175 16.19719 9.205902 0 0 -29.45551 12.14323 13.06066 -1.853048
-1052.457 100.8133 2759.571 -3.918822 -3.452616 -44.09355 5.345045 -16.73223 -0.9137765 -0 7.588978 -0 -8.28046 1.944651 -3.323057 -4.119313 12.07104 -7.414186 -0 39.09478 -0 -1.870998 -12.68308 13.63593 0.05481161 -2.135425 3.209227 2.082989 11.65163 -8.144432 0.9052895 22.20111 6.367017 2.821014 -21.74392 7.029579 -1.06823 -16.96138 11.46827 94.1074 20.29311 -24.44012 -0 0 3.699372 -19.25936 10.47916 8.371814 6.555943 -24.98663 -5.659239 -85.61906 16.77535 10.56175 0 0 -25.38429 11.86771 13.36043 -2.091079
-1057.107 100.8725 2763.858 -4.43838 -4.727265 -44.53455 4.702124 -11.49265 0.3269973 -0 7.667454 -0 -8.237233 -1.692924 -4.343654 -3.691957 7.45422 -8.049668 -0 42.74047 -0 -2.902022 -11.33079 14.9883 -0.7296625 -1.010827 3.634057 1.831054 11.03696 -7.186317 1.419622 22.83158 5.640664 2.853423 -20.57783 6.685184 -0.5939908 -16.42689 11.25365 92.81173 21.74641 -22.00262 -0 0 4.721944 -17.54409 9.393076 8.012795 6.361864 -23.36921 -4.942287 -86.29993 18.28281 10.53167 0 0 -21.48748 10.38623 12.87976 -0.8915994
-1061.675 100.8256 2767.979 -4.931395 -6.080192 -45.04042 3.955116 -7.439204 1.449481 -0 8.128014 -0 -7.184354 -4.55308 -5.706001 -3.534735 4.346786 -8.094163 -0 43.37454 -0 -3.92028 -11.14817 16.41125 -1.643875 0.01880104 3.788457 1.63233 10.31264 -6.368377 1.986596 23.47185 4.782159 2.636974 -18.94505 6.320223 -0.219369 -15.63795 10.90309 91.45327 22.43688 -19.54453 -0 0 5.503977 -16.2251 8.361286 8.028234 6.267267 -21.70607 -4.2046 -86.35285 19.67083 9.386267 0 0 -18.65706 8.495815 11.97524 0.8749542
-1066.264 100.6994 2772.062 -5.538638 -7.317347 -45.58134 3.426476 -4.435817 2.491591 -0 9.804198 -0 -5.618002 -6.683801 -7.052022 -3.450363 2.364579 -7.742513 -0 43.07856 -0 -4.773222 -11.2802 17.58796 -2.296587 0.7372041 3.851732 1.422562 9.784207 -5.753721 2.532864 23.97453 3.885577 2.262376 -17.15568 5.983583 -0.05526045 -15.00188 10.53837 90.28258 22.0997 -17.34866 -0 0 6.588442 -15.37901 7.511347 8.141581 6.135524 -20.24155 -3.702394 -86.22466 20.60493 8.200486 0 0 -16.49166 6.713828 10.9297 2.665239
-1070.912 100.5749 2776.181 -6.232806 -8.385285 -46.13618 3.106072 -2.062954 3.465156 -0 12.56618 -0 -3.831927 -8.399371 -8.194869 -3.359039 0.9150344 -7.24538 -0 42.77795 -0 -5.51296 -11.38345 18.46686 -2.659252 1.194101 3.94216 1.170429 9.459127 -5.257175 3.039771 24.33046 3.043082 1.828871 -15.42554 5.741908 -0.03239251 -14.60205 10.21531 89.32346 21.10527 -15.42996 -0 0 8.055839 -14.9214 6.914522 8.220837 5.938313 -18.96296 -3.420287 -86.16382 21.16688 7.441612 0 0 -14.65314 5.166576 9.923382 4.30971
-1075.628 100.5269 2780.378 -6.997645 -9.304771 -46.69253 2.933979 0.02758932 4.368514 -0 16.13098 -0 -1.911972 -9.909236 -9.064829 -3.232996 -0.339306 -6.75068 -0 42.71136 -0 -6.211278 -11.37218 19.12951 -2.763984 1.459906 4.111168 0.8573899 9.28268 -4.785952 3.513019 24.58226 2.314973 1.37379 -13.85028 5.659525 -0.1134978 -14.43403 9.951419 88.55851 19.71307 -13.72759 -0 0 9.844313 -14.83817 6.629152 8.233167 5.677039 -17.80327 -3.312627 -86.27491 21.48876 7.258973 0 0 -12.98372 3.839282 9.07819 5.793275
-1080.401 100.6149 2784.677 -7.821855 -10.0871 -47.24431 2.859748 2.046723 5.187461 -0 20.23048 -0 0.1370308 -11.28522 -9.613536 -3.058676 -1.575659 -6.34055 -0 42.85267 -0 -6.9173 -11.24205 19.65895 -2.627603 1.583861 4.385784 0.4723941 9.211408 -4.273654 3.952254 24.76126 1.767876 0.9119959 -12.50882 5.802022 -0.2814118 -14.49775 9.760208 87.96556 18.08986 -12.19756 -0 0 11.87656 -15.20165 6.752767 8.198051 5.359225 -16.71575 -3.354229 -86.61533 21.66302 7.740614 0 0 -11.44524 2.690011 8.484948 7.150128
